<svg id="Layer_1_1_" enable-background="new 0 0 64 64" height="512" viewBox="0 0 64 64" width="512" xmlns="http://www.w3.org/2000/svg"><path d="m17.409 11-.978-2.034 1.803-.866 1.394 2.9h1.753l1.724-3.447 1.789.895-1.276 2.552h2.71l2.255-5.507-1.455.728c-.753.376-1.661.16-2.162-.512l-1.141-1.52-1.521 1.52c-.354.354-.839.537-1.347.504-.502-.035-.963-.287-1.266-.689l-1-1.335-1.813 1.813c-.444.446-1.097.614-1.702.441l-2.424-.693 2.843 5.25z"/><path d="m27 31h7v-14h-7zm5-12h1v2h-1zm0 4h1v2h-1zm0 4h1v2h-1zm-3-8h1v2h-1zm0 4h1v2h-1zm0 4h1v2h-1z"/><path d="m15 31h10v-15c0-.552.447-1 1-1h1.738c-.621-1.278-.988-1.804-1.15-2h-11.327c-.948.588-4.261 5.58-4.261 10.933v3.067c0 2.206 1.794 4 4 4zm2-7h4v-1h-3c-.553 0-1-.448-1-1v-3c0-.552.447-1 1-1h1v-1h2v1h1c.553 0 1 .448 1 1v1h-4v1h3c.553 0 1 .448 1 1v3c0 .552-.447 1-1 1h-1v1h-2v-1h-1c-.553 0-1-.448-1-1z"/><path d="m48 28h2v3h-2z"/><path d="m42 25h-1c-.404 0-.77-.244-.924-.617-.155-.374-.069-.804.217-1.09l3.707-3.707v-14.586h-8v26h6zm-1-18h1v2h-1zm0 4h1v2h-1zm0 4h1v2h-1zm0 4h1v2h-1zm-2 2h-1v-2h1zm0-4h-1v-2h1zm0-4h-1v-2h1zm0-4h-1v-2h1z"/><path d="m54.586 23-5.586-5.586-5.586 5.586z"/><path d="m54 31v-6h-10v6h2v-4c0-.552.447-1 1-1h4c.553 0 1 .448 1 1v4z"/><path d="m52.895 38.447c-.105.211-.283.379-.501.472l-6.463 2.77c-.34 2.429-2.41 4.311-4.931 4.311h-16v-2h16c1.654 0 3-1.346 3-3s-1.346-3-3-3h-14.397c-5.25 0-10.283 1.576-14.603 4.538v13.462h22.606c4.649 0 9.19-1.302 13.133-3.767 5.944-3.715 10.052-9.804 11.271-16.707l.434-2.458c.091-.514-.05-1.039-.386-1.439s-.829-.629-1.351-.629c-.672 0-1.275.373-1.576.974l-.013.026h-45.118v2h44.118z"/><path d="m4 60h6.001l-.001-22h-6zm2-19h2v3h-2z"/><path d="m53 4h2v2h-2z"/><path d="m55 2h2v2h-2z"/><path d="m57 4h2v2h-2z"/><path d="m55 6h2v2h-2z"/><path d="m60 9h2v2h-2z"/><path d="m53 12h2v2h-2z"/><path d="m2 11h2v2h-2z"/><path d="m4 9h2v2h-2z"/><path d="m6 11h2v2h-2z"/><path d="m4 13h2v2h-2z"/><path d="m2 19h2v2h-2z"/><path d="m6 2h2v2h-2z"/></svg>