<svg id="_x33_0" enable-background="new 0 0 64 64" height="512" viewBox="0 0 64 64" width="512" xmlns="http://www.w3.org/2000/svg"><g><path d="m32.553 48.658-.553 1.106-1.553-3.105c-.511-1.023-1.539-1.659-2.683-1.659h-13.764c-1.654 0-3 1.346-3 3v1h2v-1c0-.552.449-1 1-1h13.764c.381 0 .724.212.894.553l1.724 3.447h1 1.236 1l.724-1.447c.17-.341.513-.553.894-.553h3.764v-2h-3.764c-1.144 0-2.172.636-2.683 1.658z"/><path d="m32.236 45.763.09.18c.832-.598 1.837-.943 2.91-.943h5.764v6h8v-28h-13c-1.654 0-3-1.346-3-3v-3h-6v26h.764c1.905 0 3.619 1.059 4.472 2.763zm2.764-18.763h12v2h-12zm-6 0h4v2h-4zm0 4h18v2h-18zm0 6h18v12h-2v-10h-14v4h-2z"/><path d="m9 51h14.001v10h-14.001z"/><path d="m3 54v4c0 1.654 1.346 3 3 3h1v-10h-1c-1.654 0-3 1.346-3 3z"/><path d="m25 5h-18v10h18zm-3 7h-12v-4h12z"/><path d="m33 12h-3v-4h3v-3h-6v10h6z"/><path d="m60 3h-24c-.551 0-1 .448-1 1v16c0 .552.449 1 1 1h21.618l1.764 3.527c.145.292.438.473.764.473.471 0 .854-.384.854-.854v-20.146c0-.552-.449-1-1-1zm-9 8h-2v-1c0-.552-.449-1-1-1h-1v1c0 .552.449 1 1 1 1.654 0 3 1.346 3 3v3h-2v2h-2v-2.184c-1.161-.414-2-1.514-2-2.816v-1h2v1c0 .552.449 1 1 1h1v-1c0-.552-.449-1-1-1-1.654 0-3-1.346-3-3v-3h2v-2h2v2.184c1.161.414 2 1.514 2 2.816z"/><path d="m60.756 55.671-7.756-2.327v5.312l7.754-2.327c.148-.044.246-.176.246-.329s-.098-.285-.244-.329z"/><path d="m25 53h26v6h-26z"/><path d="m9 48c0-2.757 2.243-5 5-5h11v-26h-18v32h2zm13-8h-12v-8h12zm1-11h-8v-2h8zm-8-10h8v2h-8zm-6 0h4v2h-4zm0 4h14v2h-14zm0 4h4v2h-4z"/></g></svg>